<svg width="19" height="18" viewBox="0 0 19 18" fill="none" xmlns="http://www.w3.org/2000/svg">
<path fill-rule="evenodd" clip-rule="evenodd" d="M0 2H14.5V4H2V16H17V4H12V2H19V18H0V2Z" fill="#23262C"/>
<path fill-rule="evenodd" clip-rule="evenodd" d="M4 0H7V2H10V4H7H4V0Z" fill="#23262C"/>
<path fill-rule="evenodd" clip-rule="evenodd" d="M12 4V0H15V4H12Z" fill="#23262C"/>
<path d="M4 6H7V9H4V6Z" fill="#23262C"/>
<path d="M4 10H7V13H4V10Z" fill="#23262C"/>
<path d="M8 6H11V9H8V6Z" fill="#23262C"/>
<path d="M8 10H11V13H8V10Z" fill="#23262C"/>
<path d="M12 6H15V9H12V6Z" fill="#23262C"/>
</svg>
