<svg width="12" height="8" viewBox="0 0 12 8" fill="none" xmlns="http://www.w3.org/2000/svg">
<path fill-rule="evenodd" clip-rule="evenodd" d="M10.2654 4.00012C10.2639 3.9983 10.2624 3.99648 10.2609 3.99465C10.0067 3.68961 9.64683 3.29744 9.20322 2.9133C8.28667 2.11964 7.17711 1.5 6 1.5C4.8229 1.5 3.71333 2.11964 2.79678 2.9133C2.35317 3.29744 1.99333 3.68961 1.73913 3.99465C1.73761 3.99648 1.73609 3.9983 1.73458 4.00012C1.73606 4.0019 1.73754 4.00368 1.73902 4.00546C1.99326 4.31047 2.35312 4.70262 2.79674 5.08673C3.71332 5.88036 4.82289 6.5 6 6.5C7.17711 6.5 8.28669 5.88036 9.20327 5.08673C9.64689 4.70262 10.0067 4.31047 10.261 4.00546C10.2625 4.00368 10.2639 4.00189 10.2654 4.00012ZM1.34576 3.4939C1.34486 3.49256 1.34396 3.49122 1.34305 3.48987L1.34577 3.4939L1.34576 3.4939ZM11.9002 3.67143C11.7998 3.52114 9.39382 0 6 0C2.60618 0 0.200182 3.52114 0.0998182 3.67143C-0.0332727 3.86857 -0.0332727 4.132 0.0998182 4.32914C0.200182 4.47886 2.60618 8 6 8C9.39382 8 11.7998 4.47886 11.9002 4.32914C12.0333 4.13143 12.0333 3.86857 11.9002 3.67143Z" fill="#23262C"/>
<path d="M6.00033 2.66699C5.26499 2.66699 4.66699 3.26533 4.66699 4.00033C4.66699 4.73566 5.26499 5.33366 6.00033 5.33366C6.73566 5.33366 7.33366 4.73566 7.33366 4.00033C7.33366 3.26533 6.73566 2.66699 6.00033 2.66699Z" fill="#23262C"/>
</svg>
