<svg width="670" height="156" viewBox="0 0 670 156" fill="none" xmlns="http://www.w3.org/2000/svg">
<path d="M0 15.1516H22.7072V121.048H90.6577V141.211H0V15.1516Z" fill="white"/>
<path d="M131.967 87.4713V121.298H205.99V141.086H109.26V15.1516H205.263V34.9395H131.967V67.6834" fill="white"/>
<path d="M438.835 14.7356H459.874L516.749 141.503H492.759L479.631 111.134H418.522L405.223 141.503H381.96L438.835 14.7356ZM471.335 91.5128L449.012 41.1473L426.861 91.5128H471.335Z" fill="white"/>
<path d="M534.795 15.1516H592.397C622.673 15.1516 640.377 30.982 640.377 55.2691C640.377 76.0985 627.548 88.5961 609.545 93.3869L644.439 141.086H617.67L585.555 97.1778H557.502V141.086H534.795V15.1516ZM590.729 77.6398C606.979 77.6398 617.328 69.3081 617.328 56.2272C617.328 43.1463 607.364 35.3978 590.558 35.3978H557.502V77.5982L590.729 77.6398Z" fill="white"/>
<path d="M354.934 101.261C349.468 113.137 339.985 122.826 328.069 128.712C316.153 134.598 302.525 136.323 289.461 133.6C276.396 130.877 264.686 123.871 256.285 113.751C247.884 103.631 243.301 91.0094 243.301 77.9943C243.301 64.9791 247.884 52.3578 256.285 42.2377C264.686 32.1176 276.396 25.1112 289.461 22.3883C302.525 19.6655 316.153 21.3909 328.069 27.2766C339.985 33.1623 349.468 42.852 354.934 54.7278L374.605 46.0628C367.482 30.6371 355.394 17.8922 340.171 9.75782C324.948 1.6234 307.419 -1.45762 290.237 0.981248C273.056 3.42011 257.158 11.246 244.95 23.2742C232.743 35.3023 224.891 50.8777 222.583 67.6421H131.968V87.43H222.369C224.473 104.332 232.207 120.097 244.385 132.309C256.563 144.521 272.515 152.508 289.797 155.046C307.079 157.584 324.739 154.534 340.072 146.362C355.404 138.19 367.565 125.347 374.691 109.801L354.934 101.261Z" fill="#00BED6"/>
</svg>
