<svg width="645" height="156" viewBox="0 0 645 156" fill="none" xmlns="http://www.w3.org/2000/svg">
<path d="M0 15.1515H22.7072V121.048H90.6577V141.211H0V15.1515Z" fill="white"/>
<path d="M131.967 87.4712V121.298H205.989V141.086H109.259V15.1515H205.263V34.9394H131.967V67.6833" fill="white"/>
<path d="M438.834 14.7355H459.874L516.749 141.503H492.759L479.63 111.134H418.522L405.223 141.503H381.96L438.834 14.7355ZM471.334 91.5127L449.012 41.1472L426.861 91.5127H471.334Z" fill="white"/>
<path d="M534.795 15.1515H592.397C622.673 15.1515 640.377 30.9818 640.377 55.2689C640.377 76.0983 627.548 88.596 609.545 93.3867L644.44 141.086H617.67L585.555 97.1777H557.503V141.086H534.795V15.1515ZM590.729 77.6397C606.979 77.6397 617.328 69.3079 617.328 56.2271C617.328 43.1462 607.364 35.3977 590.558 35.3977H557.503V77.5981L590.729 77.6397Z" fill="white"/>
<path d="M354.935 101.261C349.468 113.136 339.985 122.826 328.069 128.712C316.153 134.598 302.526 136.323 289.461 133.6C276.396 130.877 264.686 123.871 256.285 113.751C247.884 103.631 243.301 91.0093 243.301 77.9941C243.301 64.979 247.884 52.3577 256.285 42.2376C264.686 32.1175 276.396 25.1111 289.461 22.3882C302.526 19.6653 316.153 21.3908 328.069 27.2765C339.985 33.1622 349.468 42.8518 354.935 54.7277L374.606 46.0627C367.483 30.637 355.395 17.8921 340.172 9.7577C324.948 1.62328 307.419 -1.45774 290.238 0.981125C273.056 3.41999 257.158 11.2459 244.951 23.2741C232.743 35.3022 224.891 50.8775 222.583 67.6419H131.968V87.4299H222.369C224.474 104.332 232.207 120.096 244.385 132.309C256.564 144.521 272.515 152.508 289.797 155.046C307.08 157.584 324.739 154.533 340.072 146.362C355.405 138.19 367.565 125.347 374.691 109.801L354.935 101.261Z" fill="#00BED6"/>
</svg>
