<svg width="27" height="27" viewBox="0 0 27 27" fill="none" xmlns="http://www.w3.org/2000/svg">
<path d="M24.4697 25.5303L25 26.0607L26.0607 25L25.5303 24.4697L24.4697 25.5303ZM19.5303 18.4697L19 17.9394L17.9393 19L18.4697 19.5303L19.5303 18.4697ZM21.25 11.5C21.25 16.8848 16.8848 21.25 11.5 21.25V22.75C17.7132 22.75 22.75 17.7132 22.75 11.5H21.25ZM11.5 21.25C6.11522 21.25 1.75 16.8848 1.75 11.5H0.25C0.25 17.7132 5.2868 22.75 11.5 22.75V21.25ZM1.75 11.5C1.75 6.11522 6.11522 1.75 11.5 1.75V0.25C5.2868 0.25 0.25 5.28679 0.25 11.5H1.75ZM11.5 1.75C16.8848 1.75 21.25 6.11522 21.25 11.5H22.75C22.75 5.28679 17.7132 0.25 11.5 0.25V1.75ZM25.5303 24.4697L19.5303 18.4697L18.4697 19.5303L24.4697 25.5303L25.5303 24.4697Z" fill="#23262C"/>
</svg>
