<svg width="224" height="303" viewBox="0 0 224 303" fill="none" xmlns="http://www.w3.org/2000/svg">
<path d="M0.5 1.31481L145.5 1.2147V77.7144V78.2144H146H223.5V301.929H0.5V1.31481Z" fill="#2C88AA"/>
<path d="M0.5 1.31481L145.5 1.2147V77.7144V78.2144H146H223.5V301.929H0.5V1.31481Z" fill="url(#paint0_radial)" fill-opacity="0.14"/>
<path d="M0.5 1.31481L145.5 1.2147V77.7144V78.2144H146H223.5V301.929H0.5V1.31481Z" stroke="#23262C"/>
<path d="M223.5 78.2144H145.5V1.21436H145.795L223.5 77.9234V78.2144Z" fill="#F9F9F9" stroke="#23262C"/>
<path d="M33.42 270.714H46.74C56.64 270.714 60.915 263.514 60.915 254.649C60.915 245.784 56.64 238.584 46.74 238.584H33.42V270.714ZM39.045 266.124V243.174H44.58C53.4 243.174 55.29 248.169 55.29 254.649C55.29 261.129 53.4 266.124 44.58 266.124H39.045ZM79.5756 237.819C69.9906 237.819 64.1856 245.514 64.1856 254.649C64.1856 263.874 69.9906 271.479 79.5756 271.479C89.1606 271.479 94.9656 263.874 94.9656 254.649C94.9656 245.514 89.1606 237.819 79.5756 237.819ZM79.5756 242.409C86.4606 242.409 89.3406 248.484 89.3406 254.649C89.3406 260.814 86.4606 266.889 79.5756 266.889C72.6906 266.889 69.8106 260.814 69.8106 254.649C69.8106 248.484 72.6906 242.409 79.5756 242.409ZM98.375 254.649C98.375 263.874 104.18 271.479 113.765 271.479C121.55 271.479 126.95 266.169 127.445 258.474H121.955C121.46 263.154 118.805 266.889 113.765 266.889C106.88 266.889 104 260.814 104 254.649C104 248.484 106.88 242.409 113.765 242.409C118.445 242.409 120.83 245.064 121.775 248.799H127.4C126.68 241.869 121.055 237.819 113.765 237.819C104.18 237.819 98.375 245.514 98.375 254.649Z" fill="white"/>
<defs>
<radialGradient id="paint0_radial" cx="0" cy="0" r="1" gradientUnits="userSpaceOnUse" gradientTransform="translate(112 151.571) rotate(90) scale(338.286)">
<stop stop-color="white"/>
<stop offset="0.559163" stop-color="white" stop-opacity="0"/>
<stop offset="1" stop-color="white" stop-opacity="0"/>
</radialGradient>
</defs>
</svg>
