<svg width="224" height="302" viewBox="0 0 224 302" fill="none" xmlns="http://www.w3.org/2000/svg">
<path d="M0.5 0.600457L145.5 0.500345V77V77.5H146H223.5V301.214H0.5V0.600457Z" fill="#D34663"/>
<path d="M0.5 0.600457L145.5 0.500345V77V77.5H146H223.5V301.214H0.5V0.600457Z" fill="url(#paint0_radial)" fill-opacity="0.14"/>
<path d="M0.5 0.600457L145.5 0.500345V77V77.5H146H223.5V301.214H0.5V0.600457Z" stroke="#23262C"/>
<path d="M223.5 77.5H145.5V0.5H145.795L223.5 77.209V77.5Z" fill="#F9F9F9" stroke="#23262C"/>
<path d="M30.585 260.46C30.585 266.355 33.375 270.765 40.17 270.765C49.395 270.765 50.745 265.23 50.745 259.65V237.87H45.12V259.965C45.12 263.97 44.265 266.175 40.62 266.175C37.2 266.175 36.21 264.06 36.21 260.415V258.75H30.585V260.46ZM57.5899 270H63.2149V257.67H71.7649C80.9449 257.67 82.6999 251.82 82.6999 247.815C82.6999 243.81 80.9449 237.87 71.7649 237.87H57.5899V270ZM63.2149 242.46H71.5399C74.5099 242.46 77.0749 243.54 77.0749 247.77C77.0749 251.82 73.9699 253.08 71.4499 253.08H63.2149V242.46ZM86.1196 253.935C86.1196 263.16 91.9246 270.765 101.51 270.765C105.425 270.765 108.17 269.64 111.185 266.22L112.04 270H115.64V253.08H101.96V257.355H110.51C110.375 262.8 107.315 266.31 101.51 266.175C94.6246 266.175 91.7446 260.1 91.7446 253.935C91.7446 247.77 94.6246 241.695 101.51 241.695C105.605 241.695 109.205 243.9 109.79 248.085H115.28C114.425 240.84 108.485 237.105 101.51 237.105C91.9246 237.105 86.1196 244.8 86.1196 253.935Z" fill="white"/>
<defs>
<radialGradient id="paint0_radial" cx="0" cy="0" r="1" gradientUnits="userSpaceOnUse" gradientTransform="translate(112 150.857) rotate(90) scale(338.286)">
<stop stop-color="white"/>
<stop offset="0.559163" stop-color="white" stop-opacity="0"/>
<stop offset="1" stop-color="white" stop-opacity="0"/>
</radialGradient>
</defs>
</svg>
