<svg width="224" height="302" viewBox="0 0 224 302" fill="none" xmlns="http://www.w3.org/2000/svg">
<path d="M0.5 0.743035L145.5 0.642923V77.1426V77.6426H146H223.5V301.357H0.5V0.743035Z" fill="#7B9E2F"/>
<path d="M0.5 0.743035L145.5 0.642923V77.1426V77.6426H146H223.5V301.357H0.5V0.743035Z" fill="url(#paint0_radial)" fill-opacity="0.14"/>
<path d="M0.5 0.743035L145.5 0.642923V77.1426V77.6426H146H223.5V301.357H0.5V0.743035Z" stroke="#23262C"/>
<path d="M223.5 77.6426H145.5V0.642578H145.795L223.5 77.3516V77.6426Z" fill="#F9F9F9" stroke="#23262C"/>
<path d="M33.33 270.143H38.685V245.348H38.775L47.685 270.143H52.32L61.23 245.348H61.32V270.143H66.675V238.013H58.845L50.205 263.168H50.115L41.25 238.013H33.33V270.143ZM73.4102 270.143H79.0352V257.813H87.5852C96.7652 257.813 98.5202 251.963 98.5202 247.958C98.5202 243.953 96.7652 238.013 87.5852 238.013H73.4102V270.143ZM79.0352 242.603H87.3602C90.3302 242.603 92.8952 243.683 92.8952 247.913C92.8952 251.963 89.7902 253.223 87.2702 253.223H79.0352V242.603ZM103.425 270.143H126.87V265.283H109.05V255.878H125.25V251.288H109.05V242.873H126.555V238.013H103.425V270.143ZM130.285 254.078C130.285 263.303 136.09 270.908 145.675 270.908C149.59 270.908 152.335 269.783 155.35 266.363L156.205 270.143H159.805V253.223H146.125V257.498H154.675C154.54 262.943 151.48 266.453 145.675 266.318C138.79 266.318 135.91 260.243 135.91 254.078C135.91 247.913 138.79 241.838 145.675 241.838C149.77 241.838 153.37 244.043 153.955 248.228H159.445C158.59 240.983 152.65 237.248 145.675 237.248C136.09 237.248 130.285 244.943 130.285 254.078Z" fill="white"/>
<defs>
<radialGradient id="paint0_radial" cx="0" cy="0" r="1" gradientUnits="userSpaceOnUse" gradientTransform="translate(112 151) rotate(90) scale(338.286)">
<stop stop-color="white"/>
<stop offset="0.559163" stop-color="white" stop-opacity="0"/>
<stop offset="1" stop-color="white" stop-opacity="0"/>
</radialGradient>
</defs>
</svg>
