<svg width="224" height="303" viewBox="0 0 224 303" fill="none" xmlns="http://www.w3.org/2000/svg">
<path d="M0.5 1.02917L145.5 0.929056V77.4287V77.9287H146H223.5V301.643H0.5V1.02917Z" fill="#D8453B"/>
<path d="M0.5 1.02917L145.5 0.929056V77.4287V77.9287H146H223.5V301.643H0.5V1.02917Z" fill="url(#paint0_radial)" fill-opacity="0.14"/>
<path d="M0.5 1.02917L145.5 0.929056V77.4287V77.9287H146H223.5V301.643H0.5V1.02917Z" stroke="#23262C"/>
<path d="M223.5 77.9287H145.5V0.928711H145.795L223.5 77.6377V77.9287Z" fill="#F9F9F9" stroke="#23262C"/>
<path d="M33.42 270.429H39.045V258.099H47.595C56.775 258.099 58.53 252.249 58.53 248.244C58.53 244.239 56.775 238.299 47.595 238.299H33.42V270.429ZM39.045 242.889H47.37C50.34 242.889 52.905 243.969 52.905 248.199C52.905 252.249 49.8 253.509 47.28 253.509H39.045V242.889ZM63.4346 270.429H76.7546C86.6546 270.429 90.9297 263.229 90.9297 254.364C90.9297 245.499 86.6546 238.299 76.7546 238.299H63.4346V270.429ZM69.0596 265.839V242.889H74.5946C83.4147 242.889 85.3047 247.884 85.3047 254.364C85.3047 260.844 83.4147 265.839 74.5946 265.839H69.0596ZM95.9102 270.429H101.535V256.164H116.07V251.574H101.535V243.159H118.095V238.299H95.9102V270.429Z" fill="white"/>
<defs>
<radialGradient id="paint0_radial" cx="0" cy="0" r="1" gradientUnits="userSpaceOnUse" gradientTransform="translate(112 151.286) rotate(90) scale(338.286)">
<stop stop-color="white"/>
<stop offset="0.559163" stop-color="white" stop-opacity="0"/>
<stop offset="1" stop-color="white" stop-opacity="0"/>
</radialGradient>
</defs>
</svg>
