<svg width="224" height="302" viewBox="0 0 224 302" fill="none" xmlns="http://www.w3.org/2000/svg">
<path d="M0.5 0.600457L145.5 0.500345V77V77.5H146H223.5V301.214H0.5V0.600457Z" fill="#D34663"/>
<path d="M0.5 0.600457L145.5 0.500345V77V77.5H146H223.5V301.214H0.5V0.600457Z" fill="url(#paint0_radial)" fill-opacity="0.14"/>
<path d="M0.5 0.600457L145.5 0.500345V77V77.5H146H223.5V301.214H0.5V0.600457Z" stroke="#23262C"/>
<path d="M223.5 77.5H145.5V0.5H145.795L223.5 77.209V77.5Z" fill="#F9F9F9" stroke="#23262C"/>
<path d="M33.42 270H39.045V257.67H47.595C56.775 257.67 58.53 251.82 58.53 247.815C58.53 243.81 56.775 237.87 47.595 237.87H33.42V270ZM39.045 242.46H47.37C50.34 242.46 52.905 243.54 52.905 247.77C52.905 251.82 49.8 253.08 47.28 253.08H39.045V242.46ZM63.2096 270H68.5646V246.375H68.6996L83.3246 270H89.2647V237.87H83.9096V261.54H83.8197L69.1496 237.87H63.2096V270ZM94.4252 253.935C94.4252 263.16 100.23 270.765 109.815 270.765C113.73 270.765 116.475 269.64 119.49 266.22L120.345 270H123.945V253.08H110.265V257.355H118.815C118.68 262.8 115.62 266.31 109.815 266.175C102.93 266.175 100.05 260.1 100.05 253.935C100.05 247.77 102.93 241.695 109.815 241.695C113.91 241.695 117.51 243.9 118.095 248.085H123.585C122.73 240.84 116.79 237.105 109.815 237.105C100.23 237.105 94.4252 244.8 94.4252 253.935Z" fill="white"/>
<defs>
<radialGradient id="paint0_radial" cx="0" cy="0" r="1" gradientUnits="userSpaceOnUse" gradientTransform="translate(112 150.857) rotate(90) scale(338.286)">
<stop stop-color="white"/>
<stop offset="0.559163" stop-color="white" stop-opacity="0"/>
<stop offset="1" stop-color="white" stop-opacity="0"/>
</radialGradient>
</defs>
</svg>
