<svg width="224" height="303" viewBox="0 0 224 303" fill="none" xmlns="http://www.w3.org/2000/svg">
<path d="M0.5 1.02917L145.5 0.929056V77.4287V77.9287H146H223.5V301.643H0.5V1.02917Z" fill="#D8453B"/>
<path d="M0.5 1.02917L145.5 0.929056V77.4287V77.9287H146H223.5V301.643H0.5V1.02917Z" fill="url(#paint0_radial)" fill-opacity="0.14"/>
<path d="M0.5 1.02917L145.5 0.929056V77.4287V77.9287H146H223.5V301.643H0.5V1.02917Z" stroke="#23262C"/>
<path d="M223.5 77.9287H145.5V0.928711H145.795L223.5 77.6377V77.9287Z" fill="#F9F9F9" stroke="#23262C"/>
<path d="M33.42 270.429H39.045V258.099H47.595C56.775 258.099 58.53 252.249 58.53 248.244C58.53 244.239 56.775 238.299 47.595 238.299H33.42V270.429ZM39.045 242.889H47.37C50.34 242.889 52.905 243.969 52.905 248.199C52.905 252.249 49.8 253.509 47.28 253.509H39.045V242.889ZM63.4346 270.429H69.0596V258.099H77.6096C86.7896 258.099 88.5446 252.249 88.5446 248.244C88.5446 244.239 86.7896 238.299 77.6096 238.299H63.4346V270.429ZM69.0596 242.889H77.3846C80.3546 242.889 82.9196 243.969 82.9196 248.199C82.9196 252.249 79.8146 253.509 77.2946 253.509H69.0596V242.889ZM90.3893 243.159H100.559V270.429H106.184V243.159H116.399V238.299H90.3893V243.159Z" fill="white"/>
<defs>
<radialGradient id="paint0_radial" cx="0" cy="0" r="1" gradientUnits="userSpaceOnUse" gradientTransform="translate(112 151.286) rotate(90) scale(338.286)">
<stop stop-color="white"/>
<stop offset="0.559163" stop-color="white" stop-opacity="0"/>
<stop offset="1" stop-color="white" stop-opacity="0"/>
</radialGradient>
</defs>
</svg>
