<svg width="224" height="303" viewBox="0 0 224 303" fill="none" xmlns="http://www.w3.org/2000/svg">
<path d="M0.5 1.02917L145.5 0.929056V77.4287V77.9287H146H223.5V301.643H0.5V1.02917Z" fill="#D6B72A"/>
<path d="M0.5 1.02917L145.5 0.929056V77.4287V77.9287H146H223.5V301.643H0.5V1.02917Z" fill="url(#paint0_radial)" fill-opacity="0.14"/>
<path d="M0.5 1.02917L145.5 0.929056V77.4287V77.9287H146H223.5V301.643H0.5V1.02917Z" stroke="#23262C"/>
<path d="M223.5 77.9287H145.5V0.928711H145.795L223.5 77.6377V77.9287Z" fill="#F9F9F9" stroke="#23262C"/>
<path d="M33.42 270.429H39.045V257.199H47.325C52.5 257.199 53.715 259.809 53.715 265.704C53.715 267.279 53.715 269.034 54.57 270.429H60.6C59.385 269.124 58.845 265.749 58.845 261.969C58.845 256.929 56.01 255.399 54.075 255.174V255.084C55.155 254.724 59.385 253.149 59.385 246.984C59.385 241.539 55.83 238.299 48.765 238.299H33.42V270.429ZM39.045 242.889H48.18C51.105 242.889 53.76 243.654 53.76 247.794C53.76 251.214 51.87 252.924 48.27 252.924H39.045V242.889ZM61.3696 270.429H67.1746L70.1896 261.924H83.0146L86.0296 270.429H92.0596L79.6846 238.299H73.6996L61.3696 270.429ZM71.7196 257.649L76.5796 243.834H76.7146L81.5296 257.649H71.7196ZM95.1192 270.429H100.744V257.199H109.024C114.199 257.199 115.414 259.809 115.414 265.704C115.414 267.279 115.414 269.034 116.269 270.429H122.299C121.084 269.124 120.544 265.749 120.544 261.969C120.544 256.929 117.709 255.399 115.774 255.174V255.084C116.854 254.724 121.084 253.149 121.084 246.984C121.084 241.539 117.529 238.299 110.464 238.299H95.1192V270.429ZM100.744 242.889H109.879C112.804 242.889 115.459 243.654 115.459 247.794C115.459 251.214 113.569 252.924 109.969 252.924H100.744V242.889Z" fill="white"/>
<defs>
<radialGradient id="paint0_radial" cx="0" cy="0" r="1" gradientUnits="userSpaceOnUse" gradientTransform="translate(112 151.286) rotate(90) scale(338.286)">
<stop stop-color="white"/>
<stop offset="0.559163" stop-color="white" stop-opacity="0"/>
<stop offset="1" stop-color="white" stop-opacity="0"/>
</radialGradient>
</defs>
</svg>
