<svg width="224" height="303" viewBox="0 0 224 303" fill="none" xmlns="http://www.w3.org/2000/svg">
<path d="M0.5 1.31481L145.5 1.2147V77.7144V78.2144H146H223.5V301.929H0.5V1.31481Z" fill="#32905A"/>
<path d="M0.5 1.31481L145.5 1.2147V77.7144V78.2144H146H223.5V301.929H0.5V1.31481Z" fill="url(#paint0_radial)" fill-opacity="0.14"/>
<path d="M0.5 1.31481L145.5 1.2147V77.7144V78.2144H146H223.5V301.929H0.5V1.31481Z" stroke="#23262C"/>
<path d="M223.5 78.2144H145.5V1.21436H145.795L223.5 77.9234V78.2144Z" fill="#F9F9F9" stroke="#23262C"/>
<path d="M41.25 254.064L29.865 270.714H36.3L44.445 258.429L52.455 270.714H59.295L47.91 254.064L58.53 238.584H52.23L44.625 249.924L37.335 238.584H30.63L41.25 254.064ZM62.5997 270.714H84.5597V265.854H68.2247V238.584H62.5997V270.714ZM86.5045 260.004C86.6395 267.969 92.5795 271.479 99.9145 271.479C106.26 271.479 112.695 268.599 112.695 261.399C112.695 257.979 110.625 254.514 106.44 253.209C104.775 252.714 97.6645 250.869 97.1695 250.734C94.8745 250.059 93.3445 248.889 93.3445 246.594C93.3445 243.354 96.6295 242.409 99.2395 242.409C103.155 242.409 105.855 243.939 106.17 248.079H111.795C111.795 241.374 106.125 237.819 99.4645 237.819C93.6595 237.819 87.7195 240.789 87.7195 247.269C87.7195 250.599 89.2945 253.974 94.8295 255.414C99.2845 256.629 102.12 257.214 104.415 258.069C105.72 258.564 107.07 259.554 107.07 262.029C107.07 264.414 105.225 266.889 100.275 266.889C95.7745 266.889 92.1295 264.909 92.1295 260.004H86.5045ZM125.449 254.064L114.064 270.714H120.499L128.644 258.429L136.654 270.714H143.494L132.109 254.064L142.729 238.584H136.429L128.824 249.924L121.534 238.584H114.829L125.449 254.064Z" fill="white"/>
<defs>
<radialGradient id="paint0_radial" cx="0" cy="0" r="1" gradientUnits="userSpaceOnUse" gradientTransform="translate(112 151.571) rotate(90) scale(338.286)">
<stop stop-color="white"/>
<stop offset="0.559163" stop-color="white" stop-opacity="0"/>
<stop offset="1" stop-color="white" stop-opacity="0"/>
</radialGradient>
</defs>
</svg>
