<svg width="683" height="255" viewBox="0 0 683 255" fill="none" xmlns="http://www.w3.org/2000/svg">
<path d="M77.629 201.756C77.629 197.286 76.3377 193.412 73.755 190.134C71.1723 186.955 67.348 184.72 62.282 183.429V183.131C66.2553 181.641 69.1857 179.605 71.073 177.022C73.0597 174.439 74.053 171.062 74.053 166.89C73.9537 161.029 71.9173 156.41 67.944 153.033C63.8713 149.755 58.2093 148.066 50.958 147.967H8.94V225H49.319C58.4577 225 65.4607 222.964 70.328 218.891C75.1953 214.918 77.629 209.206 77.629 201.756ZM47.084 160.781C54.0373 160.781 57.514 163.711 57.514 169.572C57.514 172.552 56.6697 174.787 54.981 176.277C53.2923 177.866 50.8587 178.661 47.68 178.661H25.926V160.781H47.084ZM49.319 191.028C53.0937 191.028 55.9247 191.972 57.812 193.859C59.7987 195.746 60.792 198.379 60.792 201.756C60.792 205.233 59.7987 207.815 57.812 209.504C55.9247 211.292 53.0937 212.186 49.319 212.186H25.926V191.028H49.319ZM150.19 225V191.624H183.864V225H200.85V147.967H183.864V178.214H150.19V147.967H133.204V225H150.19ZM254.075 227.086C266.492 226.887 276.028 223.063 282.683 215.613C289.438 208.163 292.865 198.428 292.964 186.409C292.865 174.489 289.438 164.804 282.683 157.354C276.028 149.904 266.492 146.08 254.075 145.881C241.659 146.08 232.123 149.904 225.467 157.354C218.713 164.804 215.286 174.489 215.186 186.409C215.286 198.428 218.713 208.163 225.467 215.613C232.123 223.063 241.659 226.887 254.075 227.086ZM254.075 213.676C246.526 213.378 240.963 210.497 237.387 205.034C233.911 199.571 232.172 193.362 232.172 186.409C232.172 179.456 233.911 173.297 237.387 167.933C240.963 162.47 246.526 159.589 254.075 159.291C261.625 159.589 267.187 162.47 270.763 167.933C274.24 173.297 275.978 179.456 275.978 186.409C275.978 193.362 274.24 199.571 270.763 205.034C267.187 210.497 261.625 213.378 254.075 213.676ZM307.533 253.459H324.519V215.017H324.817C327.598 219.189 331.323 222.268 335.992 224.255C340.66 226.142 345.528 227.086 350.594 227.086C361.918 226.689 370.311 222.566 375.775 214.719C381.139 206.971 383.821 197.683 383.821 186.856C383.821 175.234 380.841 165.549 374.881 157.801C368.921 150.152 359.881 146.179 347.763 145.881C342.697 145.881 338.078 146.825 333.906 148.712C329.734 150.699 326.406 153.927 323.923 158.397H323.625V147.967H307.533V253.459ZM366.835 186.558C366.934 193.511 365.345 199.72 362.067 205.183C358.689 210.547 353.176 213.378 345.528 213.676C338.674 213.477 333.359 210.895 329.585 205.928C325.81 200.961 323.923 194.505 323.923 186.558C323.923 178.214 325.76 171.608 329.436 166.741C333.012 161.874 338.376 159.39 345.528 159.291C352.58 159.589 357.895 162.42 361.471 167.784C365.047 173.148 366.835 179.406 366.835 186.558ZM414.265 225V171.36H414.563L433.486 225H450.025L468.799 171.36H469.097V225H485.189V147.967H463.286L442.277 209.653H441.979L420.076 147.967H398.173V225H414.265ZM572.966 190.879C574.257 178.86 571.575 168.479 564.92 159.738C558.364 150.897 548.927 146.278 536.61 145.881C524.988 146.179 515.899 150.202 509.343 157.95C502.787 165.698 499.459 175.234 499.36 186.558C499.459 198.677 502.687 208.411 509.045 215.762C515.501 223.113 524.839 226.887 537.057 227.086C545.599 227.086 553.049 224.801 559.407 220.232C565.764 215.762 569.936 209.305 571.923 200.862H555.831C554.341 205.133 552.106 208.312 549.126 210.398C546.046 212.583 542.023 213.676 537.057 213.676C530.004 213.477 524.789 211.193 521.412 206.822C518.034 202.451 516.346 197.137 516.346 190.879H572.966ZM516.346 179.704C516.644 173.843 518.63 169.026 522.306 165.251C525.882 161.377 530.65 159.39 536.61 159.291C542.47 159.49 547.04 161.526 550.318 165.4C553.695 169.373 555.582 174.141 555.98 179.704H516.346Z" fill="#DADBDC"/>
<path d="M5.662 56.807L4.66194 56.8006L4.66202 56.8133L5.662 56.807ZM19.221 96.143L18.4587 96.7902L18.4587 96.7902L19.221 96.143ZM56.62 112.533L56.5952 113.533L56.6152 113.533L56.6352 113.533L56.62 112.533ZM88.357 100.613L89.0507 101.333L89.0552 101.329L88.357 100.613ZM101.916 69.472L102.913 69.5487L102.996 68.472H101.916V69.472ZM83.738 69.472V68.472H82.833L82.743 69.3725L83.738 69.472ZM75.841 89.14L75.0848 88.4856L75.0787 88.4928L75.841 89.14ZM56.62 97.335L56.5849 98.3344L56.6144 98.3354L56.6438 98.3347L56.62 97.335ZM31.886 84.67L32.7275 84.1298L32.7244 84.125L31.886 84.67ZM24.287 56.807L25.287 56.8163L25.287 56.807L25.287 56.7977L24.287 56.807ZM31.886 28.944L32.7245 29.489L32.7275 29.4842L31.886 28.944ZM56.62 16.279L56.633 15.2791L56.609 15.2788L56.5849 15.2796L56.62 16.279ZM74.5 22.239L75.1718 21.4983L75.1718 21.4983L74.5 22.239ZM83.142 37.437L82.1692 37.6686L82.3521 38.437H83.142V37.437ZM101.767 37.437V38.437H102.895L102.76 37.3172L101.767 37.437ZM87.314 10.617L87.9246 9.82508L87.9232 9.82401L87.314 10.617ZM56.62 1.081L56.6281 0.0810316L56.6116 0.0808989L56.5952 0.0813076L56.62 1.081ZM19.221 17.62L19.9833 18.2672L19.9863 18.2637L19.221 17.62ZM4.66202 56.8133C4.76263 72.709 9.34604 86.0575 18.4587 96.7902L19.9833 95.4958C11.216 85.1698 6.76004 72.2944 6.66198 56.8007L4.66202 56.8133ZM18.4587 96.7902C27.613 107.572 40.3674 113.13 56.5952 113.533L56.6448 111.533C40.8873 111.142 28.709 105.773 19.9833 95.4958L18.4587 96.7902ZM56.6352 113.533C69.9535 113.331 80.7908 109.287 89.0506 101.333L87.6634 99.8927C79.8312 107.435 69.5105 111.338 56.6049 111.533L56.6352 113.533ZM89.0552 101.329C97.3014 93.2863 101.904 82.6651 102.913 69.5487L100.919 69.3953C99.9412 82.1056 95.5046 92.2451 87.6588 99.8971L89.0552 101.329ZM101.916 68.472H83.738V70.472H101.916V68.472ZM82.743 69.3725C81.9652 77.1497 79.3982 83.5013 75.0848 88.4856L76.5972 89.7944C81.2238 84.448 83.9214 77.6876 84.733 69.5715L82.743 69.3725ZM75.0787 88.4928C70.8314 93.4951 64.7197 96.1419 56.5962 96.3353L56.6438 98.3347C65.2083 98.1308 71.9106 95.3142 76.6033 89.7872L75.0787 88.4928ZM56.6551 96.3356C45.5894 95.9473 37.6811 91.8459 32.7275 84.1298L31.0445 85.2102C36.4216 93.5861 45.0026 97.928 56.5849 98.3344L56.6551 96.3356ZM32.7244 84.125C27.679 76.3628 25.1892 67.2731 25.287 56.8163L23.287 56.7977C23.1861 67.5982 25.7623 77.0839 31.0476 85.215L32.7244 84.125ZM25.287 56.7977C25.1892 46.3409 27.679 37.2512 32.7244 29.489L31.0476 28.399C25.7623 36.5301 23.1861 46.0158 23.287 56.8163L25.287 56.7977ZM32.7275 29.4842C37.6811 21.7681 45.5894 17.6667 56.6551 17.2784L56.5849 15.2796C45.0026 15.686 36.4216 20.0279 31.0445 28.4038L32.7275 29.4842ZM56.607 17.2789C64.0927 17.3761 69.7896 19.3168 73.8282 22.9797L75.1718 21.4983C70.6677 17.4132 64.4446 15.3805 56.633 15.2791L56.607 17.2789ZM73.8282 22.9797C77.9332 26.7028 80.7203 31.5832 82.1692 37.6686L84.1148 37.2054C82.5837 30.7748 79.6095 25.5232 75.1718 21.4983L73.8282 22.9797ZM83.142 38.437H101.767V36.437H83.142V38.437ZM102.76 37.3172C101.341 25.5618 96.407 16.3657 87.9246 9.82508L86.7034 11.4089C94.7104 17.583 99.4116 26.2668 100.774 37.5568L102.76 37.3172ZM87.9232 9.82401C79.5731 3.40862 69.1184 0.181758 56.6281 0.0810316L56.6119 2.08097C68.7563 2.1789 78.7643 5.30937 86.7048 11.41L87.9232 9.82401ZM56.5952 0.0813076C40.3642 0.484557 27.609 6.09406 18.4557 16.9763L19.9863 18.2637C28.713 7.88859 40.8905 2.4721 56.6448 2.08069L56.5952 0.0813076ZM18.4587 16.9728C9.34704 27.7043 4.76264 41.0026 4.66202 56.8006L6.66198 56.8134C6.76002 41.4207 11.215 28.5944 19.9833 18.2672L18.4587 16.9728ZM137.926 110V111H138.538L138.816 110.456L137.926 110ZM166.683 53.827V52.827H166.072L165.793 53.3713L166.683 53.827ZM167.13 53.827H168.13V52.827H167.13V53.827ZM167.13 110H166.13V111H167.13V110ZM184.116 110V111H185.116V110H184.116ZM184.116 32.967H185.116V31.967H184.116V32.967ZM162.66 32.967V31.967H162.049L161.77 32.5113L162.66 32.967ZM133.903 89.14V90.14H134.515L134.793 89.5957L133.903 89.14ZM133.456 89.14H132.456V90.14H133.456V89.14ZM133.456 32.967H134.456V31.967H133.456V32.967ZM116.47 32.967V31.967H115.47V32.967H116.47ZM116.47 110H115.47V111H116.47V110ZM138.816 110.456L167.573 54.2827L165.793 53.3713L137.036 109.544L138.816 110.456ZM166.683 54.827H167.13V52.827H166.683V54.827ZM166.13 53.827V110H168.13V53.827H166.13ZM167.13 111H184.116V109H167.13V111ZM185.116 110V32.967H183.116V110H185.116ZM184.116 31.967H162.66V33.967H184.116V31.967ZM161.77 32.5113L133.013 88.6843L134.793 89.5957L163.55 33.4227L161.77 32.5113ZM133.903 88.14H133.456V90.14H133.903V88.14ZM134.456 89.14V32.967H132.456V89.14H134.456ZM133.456 31.967H116.47V33.967H133.456V31.967ZM115.47 32.967V110H117.47V32.967H115.47ZM116.47 111H137.926V109H116.47V111ZM271.016 58.744V59.744H272.138L272.009 58.629L271.016 58.744ZM259.692 37.735L259.114 38.5513L259.692 37.735ZM236.299 30.881V29.881H236.287L236.275 29.8813L236.299 30.881ZM207.84 42.801L207.071 42.1618L207.067 42.1667L207.84 42.801ZM198.304 72.303H197.304L197.304 72.3116L198.304 72.303ZM207.989 100.613L208.75 99.9639L208.745 99.9588L207.989 100.613ZM235.703 112.086L235.686 113.086L235.695 113.086H235.703V112.086ZM259.692 104.189L260.348 104.944L260.354 104.938L259.692 104.189ZM271.016 81.094L272.004 81.249L272.185 80.094H271.016V81.094ZM254.03 81.094V80.094H253.175L253.042 80.938L254.03 81.094ZM248.07 94.057L247.374 93.3384L247.374 93.3388L248.07 94.057ZM235.703 98.676L235.662 99.6752L235.683 99.676H235.703V98.676ZM219.909 90.332L219.049 90.8418L219.053 90.8489L219.909 90.332ZM215.29 72.303L214.29 72.2767L214.29 72.2881L215.29 72.303ZM222.591 49.506L221.946 48.742L221.944 48.7432L222.591 49.506ZM236.448 44.291L236.385 45.2891L236.417 45.291H236.448V44.291ZM248.368 47.867L248.996 47.0886L248.988 47.0824L248.98 47.0763L248.368 47.867ZM254.03 58.744L253.04 58.8883L253.165 59.744H254.03V58.744ZM272.009 58.629C270.891 48.9719 267.004 41.6849 260.27 36.9187L259.114 38.5513C265.293 42.9237 268.955 49.6428 270.023 58.859L272.009 58.629ZM260.27 36.9187C253.619 32.212 245.611 29.881 236.299 29.881V31.881C245.264 31.881 252.852 34.1193 259.114 38.5513L260.27 36.9187ZM236.275 29.8813C223.454 30.1841 213.66 34.2339 207.071 42.1618L208.609 43.4402C214.734 36.0708 223.913 32.1739 236.322 31.8807L236.275 29.8813ZM207.067 42.1667C200.536 50.1259 197.304 60.1974 197.304 72.303H199.304C199.304 60.5686 202.429 50.9721 208.613 43.4353L207.067 42.1667ZM197.304 72.3116C197.405 84.0253 200.692 93.7049 207.233 101.267L208.745 99.9588C202.571 92.8198 199.402 83.626 199.304 72.2944L197.304 72.3116ZM207.228 101.262C213.815 108.981 223.355 112.884 235.686 113.086L235.719 111.086C223.814 110.891 214.878 107.145 208.75 99.9639L207.228 101.262ZM235.703 113.086C245.818 113.086 254.066 110.402 260.348 104.944L259.036 103.434C253.199 108.506 245.455 111.086 235.703 111.086V113.086ZM260.354 104.938C266.534 99.4796 270.389 91.5432 272.004 81.249L270.028 80.939C268.464 90.9088 264.77 98.3691 259.03 103.44L260.354 104.938ZM271.016 80.094H254.03V82.094H271.016V80.094ZM253.042 80.938C252.171 86.4575 250.253 90.553 247.374 93.3384L248.765 94.7756C252.046 91.601 254.101 87.0544 255.018 81.25L253.042 80.938ZM247.374 93.3388C244.409 96.211 240.55 97.676 235.703 97.676V99.676C240.988 99.676 245.373 98.0617 248.766 94.7752L247.374 93.3388ZM235.743 97.6768C228.652 97.3893 223.734 94.7328 220.765 89.8151L219.053 90.8489C222.441 96.4605 228.052 99.3666 235.662 99.6752L235.743 97.6768ZM220.769 89.8222C217.691 84.6277 216.193 78.8018 216.29 72.3179L214.29 72.2881C214.188 79.1149 215.769 85.3083 219.049 90.8418L220.769 89.8222ZM216.29 72.3293C216.586 61.0598 219.014 53.8495 223.238 50.2688L221.944 48.7432C217.029 52.9105 214.59 60.8982 214.29 72.2767L216.29 72.3293ZM223.236 50.27C227.556 46.6222 231.93 45.0106 236.385 45.2891L236.51 43.2929C231.43 42.9754 226.566 44.8405 221.946 48.742L223.236 50.27ZM236.448 45.291C241.15 45.291 244.892 46.4403 247.756 48.6577L248.98 47.0763C245.686 44.5257 241.48 43.291 236.448 43.291V45.291ZM247.74 48.6454C250.582 50.9376 252.373 54.3125 253.04 58.8883L255.019 58.5997C254.296 53.6395 252.312 49.7631 248.996 47.0886L247.74 48.6454ZM254.03 59.744H271.016V57.744H254.03V59.744ZM344.274 46.377V47.377H345.274V46.377H344.274ZM344.274 32.967H345.274V31.967H344.274V32.967ZM276.628 32.967V31.967H275.628V32.967H276.628ZM276.628 46.377H275.628V47.377H276.628V46.377ZM301.958 46.377H302.958V45.377H301.958V46.377ZM301.958 110H300.958V111H301.958V110ZM318.944 110V111H319.944V110H318.944ZM318.944 46.377V45.377H317.944V46.377H318.944ZM345.274 46.377V32.967H343.274V46.377H345.274ZM344.274 31.967H276.628V33.967H344.274V31.967ZM275.628 32.967V46.377H277.628V32.967H275.628ZM276.628 47.377H301.958V45.377H276.628V47.377ZM300.958 46.377V110H302.958V46.377H300.958ZM301.958 111H318.944V109H301.958V111ZM319.944 110V46.377H317.944V110H319.944ZM318.944 47.377H344.274V45.377H318.944V47.377ZM423.82 75.879V76.879H424.718L424.814 75.9858L423.82 75.879ZM415.774 44.738L414.971 45.3337L414.978 45.3438L415.774 44.738ZM387.464 30.881L387.496 29.8815L387.467 29.8806L387.438 29.8813L387.464 30.881ZM360.197 42.95L359.434 42.3041L359.434 42.3041L360.197 42.95ZM350.214 71.558L349.214 71.5492L349.214 71.5577L349.214 71.5662L350.214 71.558ZM359.899 100.762L359.143 101.416L359.148 101.422L359.899 100.762ZM387.911 112.086L387.895 113.086L387.903 113.086H387.911V112.086ZM410.261 105.232L409.686 104.414L409.677 104.42L410.261 105.232ZM422.777 85.862L423.75 86.091L424.04 84.862H422.777V85.862ZM406.685 85.862V84.862H405.975L405.741 85.5326L406.685 85.862ZM399.98 95.398L399.407 94.5788L399.401 94.5825L399.98 95.398ZM387.911 98.676L387.883 99.6756L387.897 99.676H387.911V98.676ZM372.266 91.822L373.057 91.2106L373.057 91.2106L372.266 91.822ZM367.2 75.879V74.879H366.2V75.879H367.2ZM367.2 64.704L366.201 64.6532L366.148 65.704H367.2V64.704ZM373.16 50.251L373.876 50.9486L373.886 50.9391L373.895 50.9293L373.16 50.251ZM387.464 44.291L387.498 43.2916L387.473 43.2907L387.447 43.2911L387.464 44.291ZM401.172 50.4L400.409 51.0459L400.41 51.0476L401.172 50.4ZM406.834 64.704V65.704H407.908L407.831 64.6327L406.834 64.704ZM424.814 75.9858C426.13 63.7401 423.396 53.0982 416.57 44.1322L414.978 45.3438C421.463 53.8605 424.093 63.9793 422.826 75.7722L424.814 75.9858ZM416.577 44.1423C409.816 35.0249 400.077 30.2874 387.496 29.8815L387.432 31.8805C399.485 32.2693 408.62 36.7698 414.971 45.3337L416.577 44.1423ZM387.438 29.8813C375.577 30.1855 366.202 34.3056 359.434 42.3041L360.96 43.5959C367.304 36.0984 376.107 32.1725 387.49 31.8807L387.438 29.8813ZM359.434 42.3041C352.709 50.2511 349.315 60.0205 349.214 71.5492L351.214 71.5668C351.312 60.4475 354.573 51.1449 360.96 43.5959L359.434 42.3041ZM349.214 71.5662C349.315 83.8617 352.595 93.8449 359.143 101.416L360.655 100.108C354.489 92.9778 351.312 83.4916 351.214 71.5498L349.214 71.5662ZM359.148 101.422C365.835 109.035 375.47 112.884 387.895 113.086L387.927 111.086C375.916 110.891 366.876 107.19 360.65 100.102L359.148 101.422ZM387.911 113.086C396.643 113.086 404.302 110.747 410.845 106.044L409.677 104.42C403.506 108.856 396.264 111.086 387.911 111.086V113.086ZM410.836 106.05C417.418 101.422 421.715 94.7431 423.75 86.091L421.804 85.633C419.866 93.8676 415.819 100.102 409.686 104.414L410.836 106.05ZM422.777 84.862H406.685V86.862H422.777V84.862ZM405.741 85.5326C404.303 89.6547 402.177 92.6397 399.407 94.5788L400.553 96.2172C403.743 93.9843 406.087 90.612 407.629 86.1914L405.741 85.5326ZM399.401 94.5825C396.537 96.6151 392.735 97.676 387.911 97.676V99.676C393.02 99.676 397.264 98.5516 400.559 96.2135L399.401 94.5825ZM387.939 97.6764C381.096 97.4836 376.203 95.2808 373.057 91.2106L371.475 92.4334C375.084 97.1045 380.621 99.471 387.883 99.6756L387.939 97.6764ZM373.057 91.2106C369.833 87.038 368.2 81.9466 368.2 75.879H366.2C366.2 82.3274 367.944 87.8647 371.475 92.4334L373.057 91.2106ZM367.2 76.879H423.82V74.879H367.2V76.879ZM368.199 64.7548C368.486 59.1072 370.39 54.529 373.876 50.9486L372.444 49.5534C368.579 53.5224 366.51 58.5795 366.201 64.6532L368.199 64.7548ZM373.895 50.9293C377.26 47.2832 381.755 45.3863 387.481 45.2909L387.447 43.2911C381.253 43.3944 376.212 45.4708 372.425 49.5727L373.895 50.9293ZM387.43 45.2904C393.057 45.4812 397.342 47.4218 400.409 51.0459L401.935 49.7541C398.446 45.6302 393.592 43.4982 387.498 43.2916L387.43 45.2904ZM400.41 51.0476C403.64 54.8473 405.453 59.4092 405.837 64.7752L407.831 64.6327C407.42 58.8734 405.459 53.8994 401.934 49.7524L400.41 51.0476ZM406.834 63.704H367.2V65.704H406.834V63.704ZM452.825 110V111H453.825V110H452.825ZM452.825 56.36V55.36H451.825V56.36H452.825ZM453.123 56.36L454.066 56.0273L453.831 55.36H453.123V56.36ZM472.046 110L471.103 110.333L471.338 111H472.046V110ZM488.585 110V111H489.294L489.529 110.33L488.585 110ZM507.359 56.36V55.36H506.649L506.415 56.0296L507.359 56.36ZM507.657 56.36H508.657V55.36H507.657V56.36ZM507.657 110H506.657V111H507.657V110ZM523.749 110V111H524.749V110H523.749ZM523.749 32.967H524.749V31.967H523.749V32.967ZM501.846 32.967V31.967H501.13L500.899 32.6446L501.846 32.967ZM480.837 94.653V95.653H481.553L481.784 94.9754L480.837 94.653ZM480.539 94.653L479.597 94.9876L479.833 95.653H480.539V94.653ZM458.636 32.967L459.578 32.6324L459.342 31.967H458.636V32.967ZM436.733 32.967V31.967H435.733V32.967H436.733ZM436.733 110H435.733V111H436.733V110ZM453.825 110V56.36H451.825V110H453.825ZM452.825 57.36H453.123V55.36H452.825V57.36ZM452.18 56.6927L471.103 110.333L472.989 109.667L454.066 56.0273L452.18 56.6927ZM472.046 111H488.585V109H472.046V111ZM489.529 110.33L508.303 56.6903L506.415 56.0296L487.641 109.67L489.529 110.33ZM507.359 57.36H507.657V55.36H507.359V57.36ZM506.657 56.36V110H508.657V56.36H506.657ZM507.657 111H523.749V109H507.657V111ZM524.749 110V32.967H522.749V110H524.749ZM523.749 31.967H501.846V33.967H523.749V31.967ZM500.899 32.6446L479.89 94.3306L481.784 94.9754L502.793 33.2894L500.899 32.6446ZM480.837 93.653H480.539V95.653H480.837V93.653ZM481.481 94.3184L459.578 32.6324L457.694 33.3016L479.597 94.9876L481.481 94.3184ZM458.636 31.967H436.733V33.967H458.636V31.967ZM435.733 32.967V110H437.733V32.967H435.733ZM436.733 111H452.825V109H436.733V111ZM615.101 110H614.101V111H615.101V110ZM632.087 110V111H633.087V110H632.087ZM632.087 32.967H633.087V31.967H632.087V32.967ZM615.101 32.967V31.967H614.101V32.967H615.101ZM598.115 67.386L597.457 68.1386L597.457 68.1386L598.115 67.386ZM577.255 60.979L577.266 59.979H577.255V60.979ZM558.63 60.979H557.63V61.979H558.63V60.979ZM558.63 32.967H559.63V31.967H558.63V32.967ZM541.644 32.967V31.967H540.644V32.967H541.644ZM541.644 110H540.644V111H541.644V110ZM577.851 110V111L577.862 111L577.851 110ZM598.115 103.295L597.439 102.558L597.432 102.565L598.115 103.295ZM585.301 93.61L584.594 92.9029L584.585 92.9115L584.577 92.9203L585.301 93.61ZM558.63 96.739H557.63V97.739H558.63V96.739ZM558.63 74.24V73.24H557.63V74.24H558.63ZM585.152 77.071L585.842 76.3469L585.824 76.3301L585.806 76.3142L585.152 77.071ZM615.101 111H632.087V109H615.101V111ZM633.087 110V32.967H631.087V110H633.087ZM632.087 31.967H615.101V33.967H632.087V31.967ZM614.101 32.967V110H616.101V32.967H614.101ZM606.267 84.968C606.267 77.1909 603.8 71.0319 598.774 66.6334L597.457 68.1386C601.966 72.0841 604.267 77.6465 604.267 84.968H606.267ZM598.774 66.6334C593.761 62.2475 586.54 60.0799 577.266 59.9791L577.244 61.9789C586.248 62.0768 592.933 64.1805 597.457 68.1386L598.774 66.6334ZM577.255 59.979H558.63V61.979H577.255V59.979ZM559.63 60.979V32.967H557.63V60.979H559.63ZM558.63 31.967H541.644V33.967H558.63V31.967ZM540.644 32.967V110H542.644V32.967H540.644ZM541.644 111H577.851V109H541.644V111ZM577.862 111C586.857 110.899 593.888 108.622 598.799 104.025L597.432 102.565C593.005 106.709 586.527 108.902 577.84 109L577.862 111ZM598.791 104.032C603.809 99.4324 606.267 93.031 606.267 84.968H604.267C604.267 92.5997 601.957 98.4163 597.439 102.558L598.791 104.032ZM587.281 85.266C587.281 88.6527 586.345 91.1514 584.594 92.9029L586.008 94.3171C588.23 92.0953 589.281 89.0313 589.281 85.266H587.281ZM584.577 92.9203C582.854 94.7294 580.044 95.739 575.914 95.739V97.739C580.327 97.739 583.775 96.6626 586.025 94.2997L584.577 92.9203ZM575.914 95.739H558.63V97.739H575.914V95.739ZM559.63 96.739V74.24H557.63V96.739H559.63ZM558.63 75.24H575.616V73.24H558.63V75.24ZM575.616 75.24C579.653 75.24 582.561 76.1544 584.498 77.8278L585.806 76.3142C583.373 74.2129 579.923 73.24 575.616 73.24V75.24ZM584.462 77.7951C586.31 79.5548 587.281 82.002 587.281 85.266H589.281C589.281 81.5766 588.166 78.5606 585.842 76.3469L584.462 77.7951ZM73.755 190.134L74.5405 189.515L74.5359 189.509L74.5311 189.503L73.755 190.134ZM62.282 183.429H61.282V184.206L62.035 184.398L62.282 183.429ZM62.282 183.131L61.9309 182.195L61.282 182.438V183.131H62.282ZM71.073 177.022L70.2804 176.412L70.2729 176.422L70.2656 176.432L71.073 177.022ZM74.053 166.89H75.053V166.882L75.0529 166.873L74.053 166.89ZM67.944 153.033L68.5917 152.271L68.5814 152.262L68.571 152.254L67.944 153.033ZM50.958 147.967L50.9717 146.967H50.958V147.967ZM8.94 147.967V146.967H7.94V147.967H8.94ZM8.94 225H7.94V226H8.94V225ZM70.328 218.891L69.6956 218.116L69.6863 218.124L70.328 218.891ZM54.981 176.277L54.3194 175.527L54.3073 175.538L54.2956 175.549L54.981 176.277ZM25.926 178.661H24.926V179.661H25.926V178.661ZM25.926 160.781V159.781H24.926V160.781H25.926ZM57.812 193.859L57.1049 194.566L57.114 194.575L57.1233 194.584L57.812 193.859ZM57.812 209.504L57.1644 208.742L57.1438 208.76L57.1243 208.778L57.812 209.504ZM25.926 212.186H24.926V213.186H25.926V212.186ZM25.926 191.028V190.028H24.926V191.028H25.926ZM78.629 201.756C78.629 197.079 77.2723 192.982 74.5405 189.515L72.9695 190.753C75.403 193.842 76.629 197.493 76.629 201.756H78.629ZM74.5311 189.503C71.7796 186.117 67.7452 183.79 62.529 182.46L62.035 184.398C66.9508 185.651 70.5651 187.794 72.9789 190.765L74.5311 189.503ZM63.282 183.429V183.131H61.282V183.429H63.282ZM62.6331 184.067C66.7306 182.531 69.846 180.396 71.8804 177.612L70.2656 176.432C68.5254 178.813 65.7801 180.751 61.9309 182.195L62.6331 184.067ZM71.8656 177.632C74.0204 174.83 75.053 171.22 75.053 166.89H73.053C73.053 170.904 72.0989 174.048 70.2804 176.412L71.8656 177.632ZM75.0529 166.873C74.9493 160.765 72.8126 155.859 68.5917 152.271L67.2964 153.795C71.0221 156.962 72.958 161.294 73.0531 166.907L75.0529 166.873ZM68.571 152.254C64.268 148.791 58.3613 147.068 50.9717 146.967L50.9443 148.967C58.0574 149.064 63.4747 150.719 67.317 153.812L68.571 152.254ZM50.958 146.967H8.94V148.967H50.958V146.967ZM7.94 147.967V225H9.94V147.967H7.94ZM8.94 226H49.319V224H8.94V226ZM49.319 226C58.5912 226 65.8578 223.935 70.9697 219.658L69.6863 218.124C65.0636 221.992 58.3241 224 49.319 224V226ZM70.9604 219.666C76.1045 215.466 78.629 209.444 78.629 201.756H76.629C76.629 208.968 74.2862 214.369 69.6956 218.116L70.9604 219.666ZM47.084 161.781C50.4443 161.781 52.7781 162.493 54.262 163.743C55.7132 164.967 56.514 166.845 56.514 169.572H58.514C58.514 166.438 57.5765 163.921 55.551 162.214C53.5582 160.535 50.6771 159.781 47.084 159.781V161.781ZM56.514 169.572C56.514 172.363 55.7289 174.283 54.3194 175.527L55.6426 177.027C57.6104 175.291 58.514 172.741 58.514 169.572H56.514ZM54.2956 175.549C52.8521 176.907 50.6997 177.661 47.68 177.661V179.661C51.0177 179.661 53.7326 178.825 55.6664 177.005L54.2956 175.549ZM47.68 177.661H25.926V179.661H47.68V177.661ZM26.926 178.661V160.781H24.926V178.661H26.926ZM25.926 161.781H47.084V159.781H25.926V161.781ZM49.319 192.028C52.9395 192.028 55.4712 192.932 57.1049 194.566L58.5191 193.152C56.3781 191.011 53.2478 190.028 49.319 190.028V192.028ZM57.1233 194.584C58.8666 196.24 59.792 198.585 59.792 201.756H61.792C61.792 198.173 60.7307 195.252 58.5008 193.134L57.1233 194.584ZM59.792 201.756C59.792 205.043 58.859 207.302 57.1644 208.742L58.4597 210.266C60.7384 208.329 61.792 205.422 61.792 201.756H59.792ZM57.1243 208.778C55.492 210.324 52.9526 211.186 49.319 211.186V213.186C53.2347 213.186 56.3574 212.26 58.4997 210.23L57.1243 208.778ZM49.319 211.186H25.926V213.186H49.319V211.186ZM26.926 212.186V191.028H24.926V212.186H26.926ZM25.926 192.028H49.319V190.028H25.926V192.028ZM150.19 225V226H151.19V225H150.19ZM150.19 191.624V190.624H149.19V191.624H150.19ZM183.864 191.624H184.864V190.624H183.864V191.624ZM183.864 225H182.864V226H183.864V225ZM200.85 225V226H201.85V225H200.85ZM200.85 147.967H201.85V146.967H200.85V147.967ZM183.864 147.967V146.967H182.864V147.967H183.864ZM183.864 178.214V179.214H184.864V178.214H183.864ZM150.19 178.214H149.19V179.214H150.19V178.214ZM150.19 147.967H151.19V146.967H150.19V147.967ZM133.204 147.967V146.967H132.204V147.967H133.204ZM133.204 225H132.204V226H133.204V225ZM151.19 225V191.624H149.19V225H151.19ZM150.19 192.624H183.864V190.624H150.19V192.624ZM182.864 191.624V225H184.864V191.624H182.864ZM183.864 226H200.85V224H183.864V226ZM201.85 225V147.967H199.85V225H201.85ZM200.85 146.967H183.864V148.967H200.85V146.967ZM182.864 147.967V178.214H184.864V147.967H182.864ZM183.864 177.214H150.19V179.214H183.864V177.214ZM151.19 178.214V147.967H149.19V178.214H151.19ZM150.19 146.967H133.204V148.967H150.19V146.967ZM132.204 147.967V225H134.204V147.967H132.204ZM133.204 226H150.19V224H133.204V226ZM254.075 227.086L254.059 228.086L254.075 228.086L254.091 228.086L254.075 227.086ZM282.683 215.613L281.942 214.941L281.938 214.947L282.683 215.613ZM292.964 186.409L293.964 186.417L293.964 186.409L293.964 186.401L292.964 186.409ZM282.683 157.354L281.937 158.02L281.942 158.026L282.683 157.354ZM254.075 145.881L254.091 144.881L254.075 144.881L254.059 144.881L254.075 145.881ZM225.467 157.354L226.208 158.026L226.213 158.02L225.467 157.354ZM215.186 186.409L214.186 186.401L214.186 186.409L214.186 186.417L215.186 186.409ZM225.467 215.613L226.213 214.947L226.208 214.941L225.467 215.613ZM254.075 213.676L254.036 214.675L254.075 214.677L254.115 214.675L254.075 213.676ZM237.387 205.034L236.544 205.571L236.551 205.582L237.387 205.034ZM237.387 167.933L236.551 167.385L236.548 167.389L237.387 167.933ZM254.075 159.291L254.115 158.292L254.075 158.29L254.036 158.292L254.075 159.291ZM270.763 167.933L271.602 167.389L271.6 167.385L270.763 167.933ZM270.763 205.034L271.6 205.582L271.607 205.571L270.763 205.034ZM254.091 228.086C266.714 227.884 276.544 223.986 283.429 216.279L281.938 214.947C275.512 222.14 266.27 225.891 254.059 226.086L254.091 228.086ZM283.424 216.285C290.375 208.619 293.863 198.632 293.964 186.417L291.964 186.401C291.867 198.225 288.501 207.707 281.942 214.941L283.424 216.285ZM293.964 186.401C293.863 174.283 290.373 164.347 283.424 156.682L281.942 158.026C288.503 165.261 291.867 174.695 291.964 186.417L293.964 186.401ZM283.429 156.688C276.544 148.981 266.714 145.083 254.091 144.881L254.059 146.881C266.27 147.076 275.512 150.827 281.938 158.02L283.429 156.688ZM254.059 144.881C241.436 145.083 231.606 148.981 224.722 156.688L226.213 158.02C232.639 150.827 241.881 147.076 254.091 146.881L254.059 144.881ZM224.726 156.682C217.777 164.347 214.287 174.283 214.186 186.401L216.186 186.417C216.284 174.695 219.648 165.261 226.208 158.026L224.726 156.682ZM214.186 186.417C214.287 198.632 217.776 208.619 224.726 216.285L226.208 214.941C219.649 207.707 216.284 198.225 216.186 186.401L214.186 186.417ZM224.722 216.279C231.606 223.986 241.436 227.884 254.059 228.086L254.091 226.086C241.881 225.891 232.639 222.14 226.213 214.947L224.722 216.279ZM254.115 212.677C246.83 212.389 241.593 209.634 238.224 204.486L236.551 205.582C240.333 211.361 246.222 214.367 254.036 214.675L254.115 212.677ZM238.231 204.497C234.864 199.206 233.172 193.187 233.172 186.409H231.172C231.172 193.538 232.957 199.935 236.544 205.571L238.231 204.497ZM233.172 186.409C233.172 179.631 234.864 173.665 238.226 168.477L236.548 167.389C232.957 172.929 231.172 179.28 231.172 186.409H233.172ZM238.224 168.481C241.593 163.333 246.83 160.578 254.115 160.29L254.036 158.292C246.222 158.6 240.333 161.606 236.551 167.385L238.224 168.481ZM254.036 160.29C261.32 160.578 266.557 163.333 269.927 168.481L271.6 167.385C267.817 161.606 261.929 158.6 254.115 158.292L254.036 160.29ZM269.924 168.477C273.287 173.665 274.978 179.631 274.978 186.409H276.978C276.978 179.28 275.193 172.929 271.602 167.389L269.924 168.477ZM274.978 186.409C274.978 193.187 273.287 199.206 269.92 204.497L271.607 205.571C275.193 199.935 276.978 193.538 276.978 186.409H274.978ZM269.927 204.486C266.557 209.634 261.32 212.389 254.036 212.677L254.115 214.675C261.929 214.367 267.817 211.361 271.6 205.582L269.927 204.486ZM307.533 253.459H306.533V254.459H307.533V253.459ZM324.519 253.459V254.459H325.519V253.459H324.519ZM324.519 215.017V214.017H323.519V215.017H324.519ZM324.817 215.017L325.649 214.462L325.352 214.017H324.817V215.017ZM335.992 224.255L335.6 225.175L335.608 225.179L335.617 225.182L335.992 224.255ZM350.594 227.086V228.086H350.611L350.629 228.085L350.594 227.086ZM375.775 214.719L376.595 215.29L376.597 215.288L375.775 214.719ZM374.881 157.801L375.673 157.191L375.669 157.186L374.881 157.801ZM347.763 145.881L347.787 144.881L347.775 144.881H347.763V145.881ZM333.906 148.712L333.493 147.801L333.484 147.805L333.476 147.809L333.906 148.712ZM323.923 158.397V159.397H324.511L324.797 158.883L323.923 158.397ZM323.625 158.397H322.625V159.397H323.625V158.397ZM323.625 147.967H324.625V146.967H323.625V147.967ZM307.533 147.967V146.967H306.533V147.967H307.533ZM366.835 186.558H365.835V186.565L365.835 186.572L366.835 186.558ZM362.067 205.183L362.913 205.716L362.918 205.707L362.924 205.697L362.067 205.183ZM345.528 213.676L345.499 214.676L345.532 214.677L345.566 214.675L345.528 213.676ZM329.585 205.928L330.381 205.323L330.381 205.323L329.585 205.928ZM329.436 166.741L330.234 167.344L330.241 167.333L329.436 166.741ZM345.528 159.291L345.57 158.292L345.542 158.291L345.514 158.291L345.528 159.291ZM361.471 167.784L360.638 168.339L360.638 168.339L361.471 167.784ZM307.533 254.459H324.519V252.459H307.533V254.459ZM325.519 253.459V215.017H323.519V253.459H325.519ZM324.519 216.017H324.817V214.017H324.519V216.017ZM323.984 215.572C326.875 219.908 330.754 223.113 335.6 225.175L336.383 223.335C331.891 221.424 328.32 218.47 325.649 214.462L323.984 215.572ZM335.617 225.182C340.405 227.118 345.4 228.086 350.594 228.086V226.086C345.655 226.086 340.915 225.167 336.366 223.328L335.617 225.182ZM350.629 228.085C362.202 227.679 370.917 223.446 376.595 215.29L374.954 214.148C369.705 221.687 361.634 225.698 350.558 226.087L350.629 228.085ZM376.597 215.288C382.093 207.349 384.821 197.855 384.821 186.856H382.821C382.821 197.511 380.184 206.593 374.952 214.15L376.597 215.288ZM384.821 186.856C384.821 175.057 381.792 165.145 375.673 157.191L374.088 158.411C379.889 165.953 382.821 175.411 382.821 186.856H384.821ZM375.669 157.186C369.48 149.244 360.124 145.185 347.787 144.881L347.738 146.881C359.639 147.173 368.361 151.061 374.092 158.416L375.669 157.186ZM347.763 144.881C342.57 144.881 337.808 145.849 333.493 147.801L334.318 149.623C338.347 147.8 342.823 146.881 347.763 146.881V144.881ZM333.476 147.809C329.096 149.895 325.621 153.28 323.048 157.911L324.797 158.883C327.19 154.574 330.371 151.503 334.335 149.615L333.476 147.809ZM323.923 157.397H323.625V159.397H323.923V157.397ZM324.625 158.397V147.967H322.625V158.397H324.625ZM323.625 146.967H307.533V148.967H323.625V146.967ZM306.533 147.967V253.459H308.533V147.967H306.533ZM365.835 186.572C365.932 193.357 364.383 199.379 361.209 204.669L362.924 205.697C366.306 200.06 367.936 193.665 367.834 186.544L365.835 186.572ZM361.22 204.65C358.057 209.675 352.886 212.389 345.489 212.677L345.566 214.675C353.467 214.367 359.322 211.419 362.913 205.716L361.22 204.65ZM345.556 212.676C338.971 212.486 333.953 210.023 330.381 205.323L328.788 206.533C332.766 211.766 338.376 214.469 345.499 214.676L345.556 212.676ZM330.381 205.323C326.771 200.573 324.923 194.347 324.923 186.558H322.923C322.923 194.663 324.849 201.35 328.788 206.533L330.381 205.323ZM324.923 186.558C324.923 178.353 326.73 171.984 330.234 167.344L328.637 166.138C324.79 171.233 322.923 178.075 322.923 186.558H324.923ZM330.241 167.333C333.596 162.766 338.638 160.387 345.541 160.291L345.514 158.291C338.113 158.394 332.427 160.981 328.63 166.149L330.241 167.333ZM345.485 160.29C352.254 160.576 357.258 163.268 360.638 168.339L362.303 167.229C358.531 161.571 352.906 158.602 345.57 158.292L345.485 160.29ZM360.638 168.339C364.093 173.521 365.835 179.581 365.835 186.558H367.835C367.835 179.231 366 172.775 362.303 167.229L360.638 168.339ZM414.265 225V226H415.265V225H414.265ZM414.265 171.36V170.36H413.265V171.36H414.265ZM414.563 171.36L415.506 171.027L415.271 170.36H414.563V171.36ZM433.486 225L432.543 225.333L432.779 226H433.486V225ZM450.025 225V226H450.735L450.969 225.33L450.025 225ZM468.799 171.36V170.36H468.09L467.856 171.03L468.799 171.36ZM469.097 171.36H470.097V170.36H469.097V171.36ZM469.097 225H468.097V226H469.097V225ZM485.189 225V226H486.189V225H485.189ZM485.189 147.967H486.189V146.967H485.189V147.967ZM463.286 147.967V146.967H462.571L462.34 147.645L463.286 147.967ZM442.277 209.653V210.653H442.993L443.224 209.975L442.277 209.653ZM441.979 209.653L441.037 209.988L441.273 210.653H441.979V209.653ZM420.076 147.967L421.019 147.632L420.782 146.967H420.076V147.967ZM398.173 147.967V146.967H397.173V147.967H398.173ZM398.173 225H397.173V226H398.173V225ZM415.265 225V171.36H413.265V225H415.265ZM414.265 172.36H414.563V170.36H414.265V172.36ZM413.62 171.693L432.543 225.333L434.429 224.667L415.506 171.027L413.62 171.693ZM433.486 226H450.025V224H433.486V226ZM450.969 225.33L469.743 171.69L467.856 171.03L449.082 224.67L450.969 225.33ZM468.799 172.36H469.097V170.36H468.799V172.36ZM468.097 171.36V225H470.097V171.36H468.097ZM469.097 226H485.189V224H469.097V226ZM486.189 225V147.967H484.189V225H486.189ZM485.189 146.967H463.286V148.967H485.189V146.967ZM462.34 147.645L441.331 209.331L443.224 209.975L464.233 148.289L462.34 147.645ZM442.277 208.653H441.979V210.653H442.277V208.653ZM442.922 209.318L421.019 147.632L419.134 148.302L441.037 209.988L442.922 209.318ZM420.076 146.967H398.173V148.967H420.076V146.967ZM397.173 147.967V225H399.173V147.967H397.173ZM398.173 226H414.265V224H398.173V226ZM572.966 190.879V191.879H573.864L573.96 190.986L572.966 190.879ZM564.92 159.738L564.116 160.334L564.124 160.344L564.92 159.738ZM536.61 145.881L536.642 144.882L536.613 144.881L536.584 144.881L536.61 145.881ZM509.343 157.95L508.579 157.304L508.579 157.304L509.343 157.95ZM499.36 186.558L498.36 186.549L498.359 186.558L498.36 186.566L499.36 186.558ZM509.045 215.762L508.288 216.416L508.293 216.422L509.045 215.762ZM537.057 227.086L537.04 228.086L537.048 228.086H537.057V227.086ZM559.407 220.232L558.831 219.414L558.823 219.42L559.407 220.232ZM571.923 200.862L572.896 201.091L573.185 199.862H571.923V200.862ZM555.831 200.862V199.862H555.12L554.886 200.533L555.831 200.862ZM549.126 210.398L548.552 209.579L548.547 209.582L549.126 210.398ZM537.057 213.676L537.028 214.676L537.042 214.676H537.057V213.676ZM521.412 206.822L522.203 206.211L522.203 206.211L521.412 206.822ZM516.346 190.879V189.879H515.346V190.879H516.346ZM516.346 179.704L515.347 179.653L515.293 180.704H516.346V179.704ZM522.306 165.251L523.022 165.949L523.031 165.939L523.04 165.929L522.306 165.251ZM536.61 159.291L536.643 158.292L536.618 158.291L536.593 158.291L536.61 159.291ZM550.318 165.4L549.554 166.046L549.556 166.048L550.318 165.4ZM555.98 179.704V180.704H557.054L556.977 179.633L555.98 179.704ZM573.96 190.986C575.275 178.74 572.542 168.098 565.715 159.132L564.124 160.344C570.608 168.861 573.238 178.979 571.971 190.772L573.96 190.986ZM565.723 159.142C558.962 150.025 549.223 145.287 536.642 144.882L536.577 146.88C548.631 147.269 557.766 151.77 564.116 160.334L565.723 159.142ZM536.584 144.881C524.723 145.185 515.347 149.306 508.579 157.304L510.106 158.596C516.45 151.098 525.252 147.173 536.635 146.881L536.584 144.881ZM508.579 157.304C501.855 165.251 498.461 175.021 498.36 186.549L500.359 186.567C500.457 175.447 503.718 166.145 510.106 158.596L508.579 157.304ZM498.36 186.566C498.46 198.862 501.74 208.845 508.288 216.416L509.801 215.108C503.634 207.978 500.457 198.492 500.359 186.55L498.36 186.566ZM508.293 216.422C514.981 224.035 524.616 227.884 537.04 228.086L537.073 226.086C525.061 225.891 516.022 222.19 509.796 215.102L508.293 216.422ZM537.057 228.086C545.789 228.086 553.447 225.747 559.99 221.044L558.823 219.42C552.651 223.856 545.41 226.086 537.057 226.086V228.086ZM559.982 221.05C566.563 216.422 570.86 209.743 572.896 201.091L570.949 200.633C569.012 208.868 564.965 215.102 558.831 219.414L559.982 221.05ZM571.923 199.862H555.831V201.862H571.923V199.862ZM554.886 200.533C553.448 204.655 551.322 207.64 548.552 209.579L549.699 211.217C552.889 208.984 555.233 205.612 556.775 201.191L554.886 200.533ZM548.547 209.582C545.683 211.615 541.881 212.676 537.057 212.676V214.676C542.166 214.676 546.41 213.552 549.704 211.214L548.547 209.582ZM537.085 212.676C530.242 212.484 525.348 210.281 522.203 206.211L520.62 207.433C524.23 212.105 529.766 214.471 537.028 214.676L537.085 212.676ZM522.203 206.211C518.979 202.038 517.346 196.947 517.346 190.879H515.346C515.346 197.327 517.09 202.865 520.62 207.433L522.203 206.211ZM516.346 191.879H572.966V189.879H516.346V191.879ZM517.344 179.755C517.631 174.107 519.536 169.529 523.022 165.949L521.589 164.553C517.725 168.522 515.656 173.579 515.347 179.653L517.344 179.755ZM523.04 165.929C526.406 162.283 530.9 160.386 536.626 160.291L536.593 158.291C530.399 158.394 525.357 160.471 521.571 164.573L523.04 165.929ZM536.576 160.29C542.202 160.481 546.488 162.422 549.554 166.046L551.081 164.754C547.592 160.63 542.738 158.498 536.643 158.292L536.576 160.29ZM549.556 166.048C552.785 169.847 554.599 174.409 554.982 179.775L556.977 179.633C556.566 173.873 554.604 168.899 551.079 164.752L549.556 166.048ZM555.98 178.704H516.346V180.704H555.98V178.704Z" fill="#DADBDC"/>
</svg>
